<svg xmlns="http://www.w3.org/2000/svg" viewBox="0 0 880 380" width="100%" height="100%">
  <defs>
    <linearGradient id="critGrad" x1="0%" y1="0%" x2="100%" y2="0%">
      <stop offset="0%" stop-color="#fd4f00" />
      <stop offset="100%" stop-color="#ea580c" />
    </linearGradient>
    <linearGradient id="barGrad1" x1="0%" y1="0%" x2="100%" y2="0%">
      <stop offset="0%" stop-color="#1a6f3f" />
      <stop offset="100%" stop-color="#2dc26e" />
    </linearGradient>
    <linearGradient id="barGrad2" x1="0%" y1="0%" x2="100%" y2="0%">
      <stop offset="0%" stop-color="#104628" />
      <stop offset="100%" stop-color="#249856" />
    </linearGradient>
  </defs>
  <rect width="880" height="380" rx="10" fill="#141210" stroke="#292524" stroke-width="1.5" />
  <text x="24" y="30" fill="#ffffff" font-family="system-ui, sans-serif" font-size="15" font-weight="700">Dynamic Worker Lane Allocation (PR #6826)</text>
  <text x="856" y="30" text-anchor="end" fill="#2dc26e" font-family="monospace" font-size="11.5">8 ExUnit Workers (4 Schedulers × 2) · Total 4m 39s</text>
  <line x1="105" y1="40" x2="105" y2="346" stroke="#292524" stroke-width="1" stroke-dasharray="4,4" />
  <text x="105" y="364" text-anchor="middle" fill="#78716c" font-family="monospace" font-size="11">00:00</text>
  <line x1="255" y1="40" x2="255" y2="346" stroke="#292524" stroke-width="1" stroke-dasharray="4,4" />
  <text x="255" y="364" text-anchor="middle" fill="#78716c" font-family="monospace" font-size="11">01:00</text>
  <line x1="405" y1="40" x2="405" y2="346" stroke="#292524" stroke-width="1" stroke-dasharray="4,4" />
  <text x="405" y="364" text-anchor="middle" fill="#78716c" font-family="monospace" font-size="11">02:00</text>
  <line x1="555" y1="40" x2="555" y2="346" stroke="#292524" stroke-width="1" stroke-dasharray="4,4" />
  <text x="555" y="364" text-anchor="middle" fill="#78716c" font-family="monospace" font-size="11">03:00</text>
  <line x1="705" y1="40" x2="705" y2="346" stroke="#292524" stroke-width="1" stroke-dasharray="4,4" />
  <text x="705" y="364" text-anchor="middle" fill="#78716c" font-family="monospace" font-size="11">04:00</text>
  <line x1="855" y1="40" x2="855" y2="346" stroke="#292524" stroke-width="1" stroke-dasharray="4,4" />
  <text x="855" y="364" text-anchor="middle" fill="#78716c" font-family="monospace" font-size="11">05:00</text>
  <text x="94" y="66" text-anchor="end" fill="#a8a29e" font-family="system-ui, sans-serif" font-size="11.5" font-weight="700">Lane 1</text>
  <rect x="105" y="46" width="750" height="32" rx="4" fill="#1c1917" opacity="0.4" />
  <g>
    <rect x="105" y="49" width="97.5" height="26" rx="4" fill="url(#barGrad1)" stroke="#141210" stroke-width="1" opacity="0.95" />
    <text x="153.75" y="65" text-anchor="middle" fill="#ffffff" font-family="monospace" font-size="9.5" font-weight="600">MySQLHtml</text>
  </g>
  <g>
    <rect x="202.5" y="49" width="200" height="26" rx="4" fill="url(#barGrad2)" stroke="#141210" stroke-width="1" opacity="0.95" />
    <text x="302.5" y="65" text-anchor="middle" fill="#ffffff" font-family="monospace" font-size="9.5" font-weight="600">ScopesCustomRoutes</text>
  </g>
  <g>
    <rect x="402.5" y="49" width="342.5" height="26" rx="4" fill="url(#barGrad1)" stroke="#141210" stroke-width="1" opacity="0.95" />
    <text x="573.75" y="65" text-anchor="middle" fill="#ffffff" font-family="monospace" font-size="9.5" font-weight="600">UmbrellaPostgresAuth</text>
  </g>
  <text x="94" y="103" text-anchor="end" fill="#a8a29e" font-family="system-ui, sans-serif" font-size="11.5" font-weight="700">Lane 2</text>
  <rect x="105" y="83" width="750" height="32" rx="4" fill="#1c1917" opacity="0.4" />
  <g>
    <rect x="105" y="86" width="117.5" height="26" rx="4" fill="url(#barGrad1)" stroke="#141210" stroke-width="1" opacity="0.95" />
    <text x="163.75" y="102" text-anchor="middle" fill="#ffffff" font-family="monospace" font-size="9.5" font-weight="600">MSSQLLive</text>
  </g>
  <g>
    <rect x="222.5" y="86" width="247.5" height="26" rx="4" fill="url(#barGrad2)" stroke="#141210" stroke-width="1" opacity="0.95" />
    <text x="346.25" y="102" text-anchor="middle" fill="#ffffff" font-family="monospace" font-size="9.5" font-weight="600">ScopesJson</text>
  </g>
  <g>
    <rect x="470" y="86" width="192.5" height="26" rx="4" fill="url(#barGrad1)" stroke="#141210" stroke-width="1" opacity="0.95" />
    <text x="566.25" y="102" text-anchor="middle" fill="#ffffff" font-family="monospace" font-size="9.5" font-weight="600">PostgresHtml</text>
  </g>
  <text x="94" y="140" text-anchor="end" fill="#a8a29e" font-family="system-ui, sans-serif" font-size="11.5" font-weight="700">Lane 3</text>
  <rect x="105" y="120" width="750" height="32" rx="4" fill="#1c1917" opacity="0.4" />
  <g>
    <rect x="105" y="123" width="162.5" height="26" rx="4" fill="url(#barGrad1)" stroke="#141210" stroke-width="1" opacity="0.95" />
    <text x="186.25" y="139" text-anchor="middle" fill="#ffffff" font-family="monospace" font-size="9.5" font-weight="600">UmbrellaPostgresHtml</text>
  </g>
  <g>
    <rect x="267.5" y="123" width="102.5" height="26" rx="4" fill="url(#barGrad2)" stroke="#141210" stroke-width="1" opacity="0.95" />
    <text x="318.75" y="139" text-anchor="middle" fill="#ffffff" font-family="monospace" font-size="9.5" font-weight="600">MSSQLJson</text>
  </g>
  <g>
    <rect x="370" y="123" width="162.5" height="26" rx="4" fill="url(#barGrad1)" stroke="#141210" stroke-width="1" opacity="0.95" />
    <text x="451.25" y="139" text-anchor="middle" fill="#ffffff" font-family="monospace" font-size="9.5" font-weight="600">UmbrellaPostgres</text>
  </g>
  <g>
    <rect x="532.5" y="123" width="80" height="26" rx="4" fill="url(#barGrad2)" stroke="#141210" stroke-width="1" opacity="0.95" />
    <text x="572.5" y="139" text-anchor="middle" fill="#ffffff" font-family="monospace" font-size="9.5" font-weight="600">MySQLLive</text>
  </g>
  <g>
    <rect x="612.5" y="123" width="90" height="26" rx="4" fill="url(#barGrad1)" stroke="#141210" stroke-width="1" opacity="0.95" />
    <text x="657.5" y="139" text-anchor="middle" fill="#ffffff" font-family="monospace" font-size="9.5" font-weight="600">SQLite3Html</text>
  </g>
  <text x="94" y="177" text-anchor="end" fill="#a8a29e" font-family="system-ui, sans-serif" font-size="11.5" font-weight="700">Lane 4</text>
  <rect x="105" y="157" width="750" height="32" rx="4" fill="#1c1917" opacity="0.4" />
  <g>
    <rect x="105" y="160" width="185" height="26" rx="4" fill="url(#barGrad1)" stroke="#141210" stroke-width="1" opacity="0.95" />
    <text x="197.5" y="176" text-anchor="middle" fill="#ffffff" font-family="monospace" font-size="9.5" font-weight="600">UmbrellaPostgresJson</text>
  </g>
  <g>
    <rect x="290" y="160" width="160" height="26" rx="4" fill="url(#barGrad2)" stroke="#141210" stroke-width="1" opacity="0.95" />
    <text x="370" y="176" text-anchor="middle" fill="#ffffff" font-family="monospace" font-size="9.5" font-weight="600">MySQLScopes</text>
  </g>
  <g>
    <rect x="450" y="160" width="100" height="26" rx="4" fill="url(#barGrad1)" stroke="#141210" stroke-width="1" opacity="0.95" />
    <text x="500" y="176" text-anchor="middle" fill="#ffffff" font-family="monospace" font-size="9.5" font-weight="600">SQLite3Live</text>
  </g>
  <g>
    <rect x="550" y="160" width="92.5" height="26" rx="4" fill="url(#barGrad2)" stroke="#141210" stroke-width="1" opacity="0.95" />
    <text x="596.25" y="176" text-anchor="middle" fill="#ffffff" font-family="monospace" font-size="9.5" font-weight="600">SQLite3Json</text>
  </g>
  <g>
    <rect x="642.5" y="160" width="72.5" height="26" rx="4" fill="url(#barGrad1)" stroke="#141210" stroke-width="1" opacity="0.95" />
    <text x="678.75" y="176" text-anchor="middle" fill="#ffffff" font-family="monospace" font-size="9.5" font-weight="600">MySQLJson</text>
  </g>
  <text x="94" y="214" text-anchor="end" fill="#a8a29e" font-family="system-ui, sans-serif" font-size="11.5" font-weight="700">Lane 5</text>
  <rect x="105" y="194" width="750" height="32" rx="4" fill="#1c1917" opacity="0.4" />
  <g>
    <rect x="105" y="197" width="150" height="26" rx="4" fill="url(#barGrad1)" stroke="#141210" stroke-width="1" opacity="0.95" />
    <text x="180" y="213" text-anchor="middle" fill="#ffffff" font-family="monospace" font-size="9.5" font-weight="600">ScopesLive</text>
  </g>
  <g>
    <rect x="255" y="197" width="412.5" height="26" rx="4" fill="url(#critGrad)" stroke="#141210" stroke-width="1" opacity="0.95" />
    <text x="461.25" y="213" text-anchor="middle" fill="#ffffff" font-family="monospace" font-size="9.5" font-weight="600">SQLite3Auth</text>
  </g>
  <text x="94" y="251" text-anchor="end" fill="#a8a29e" font-family="system-ui, sans-serif" font-size="11.5" font-weight="700">Lane 6</text>
  <rect x="105" y="231" width="750" height="32" rx="4" fill="#1c1917" opacity="0.4" />
  <g>
    <rect x="105" y="234" width="185" height="26" rx="4" fill="url(#barGrad1)" stroke="#141210" stroke-width="1" opacity="0.95" />
    <text x="197.5" y="250" text-anchor="middle" fill="#ffffff" font-family="monospace" font-size="9.5" font-weight="600">UmbrellaPostgresLive</text>
  </g>
  <g>
    <rect x="290" y="234" width="160" height="26" rx="4" fill="url(#barGrad2)" stroke="#141210" stroke-width="1" opacity="0.95" />
    <text x="370" y="250" text-anchor="middle" fill="#ffffff" font-family="monospace" font-size="9.5" font-weight="600">Postgres</text>
  </g>
  <g>
    <rect x="450" y="234" width="322.5" height="26" rx="4" fill="url(#barGrad1)" stroke="#141210" stroke-width="1" opacity="0.95" />
    <text x="611.25" y="250" text-anchor="middle" fill="#ffffff" font-family="monospace" font-size="9.5" font-weight="600">PostgresAuth</text>
  </g>
  <text x="94" y="288" text-anchor="end" fill="#a8a29e" font-family="system-ui, sans-serif" font-size="11.5" font-weight="700">Lane 7</text>
  <rect x="105" y="268" width="750" height="32" rx="4" fill="#1c1917" opacity="0.4" />
  <g>
    <rect x="105" y="271" width="185" height="26" rx="4" fill="url(#barGrad1)" stroke="#141210" stroke-width="1" opacity="0.95" />
    <text x="197.5" y="287" text-anchor="middle" fill="#ffffff" font-family="monospace" font-size="9.5" font-weight="600">PostgresLive</text>
  </g>
  <g>
    <rect x="290" y="271" width="145" height="26" rx="4" fill="url(#barGrad2)" stroke="#141210" stroke-width="1" opacity="0.95" />
    <text x="362.5" y="287" text-anchor="middle" fill="#ffffff" font-family="monospace" font-size="9.5" font-weight="600">MinimalApp</text>
  </g>
  <g>
    <rect x="435" y="271" width="332.5" height="26" rx="4" fill="url(#barGrad1)" stroke="#141210" stroke-width="1" opacity="0.95" />
    <text x="601.25" y="287" text-anchor="middle" fill="#ffffff" font-family="monospace" font-size="9.5" font-weight="600">MySQLAuth</text>
  </g>
  <text x="94" y="325" text-anchor="end" fill="#a8a29e" font-family="system-ui, sans-serif" font-size="11.5" font-weight="700">Lane 8</text>
  <rect x="105" y="305" width="750" height="32" rx="4" fill="#1c1917" opacity="0.4" />
  <g>
    <rect x="105" y="308" width="185" height="26" rx="4" fill="url(#barGrad1)" stroke="#141210" stroke-width="1" opacity="0.95" />
    <text x="197.5" y="324" text-anchor="middle" fill="#ffffff" font-family="monospace" font-size="9.5" font-weight="600">PostgresJson</text>
  </g>
  <g>
    <rect x="290" y="308" width="107.5" height="26" rx="4" fill="url(#barGrad2)" stroke="#141210" stroke-width="1" opacity="0.95" />
    <text x="343.75" y="324" text-anchor="middle" fill="#ffffff" font-family="monospace" font-size="9.5" font-weight="600">MSSQLHtml</text>
  </g>
  <g>
    <rect x="397.5" y="308" width="150" height="26" rx="4" fill="url(#barGrad1)" stroke="#141210" stroke-width="1" opacity="0.95" />
    <text x="472.5" y="324" text-anchor="middle" fill="#ffffff" font-family="monospace" font-size="9.5" font-weight="600">ScopesHtml</text>
  </g>
  <g>
    <rect x="547.5" y="308" width="255" height="26" rx="4" fill="url(#barGrad2)" stroke="#141210" stroke-width="1" opacity="0.95" />
    <text x="675" y="324" text-anchor="middle" fill="#ffffff" font-family="monospace" font-size="9.5" font-weight="600">MSSQLAuth</text>
  </g>
</svg>
